<svg xmlns="http://www.w3.org/2000/svg" viewBox="0 0 100 100">
  <path d="M86.6162,48.3909c.5719-3.3668,1.8687-6.5182,2.4251-9.8944A32.4156,32.4156,0,0,0,88.75,25.198a22.6053,22.6053,0,0,0-5.409-10.0767,17.0382,17.0382,0,0,0-4.1773-3.2808,16.66,16.66,0,0,0-6.3225-1.9162,25.895,25.895,0,0,0-5.7459.3466,22.2358,22.2358,0,0,1-4.8726.1113,18.6424,18.6424,0,0,1-3.6-1.1223c-1.8663-.9739-3.6516-2.1368-5.5412-3.0563a17.9,17.9,0,0,0-4.273-1.6607,14.1092,14.1092,0,0,0-5.64-.0754,12.3534,12.3534,0,0,0-7.0757,4.4811,16.8407,16.8407,0,0,0-3.6266,9.5366,9.1462,9.1462,0,0,0-.7314,3.0348c-.0115.1253-.0244.25-.0368.3756a25.3526,25.3526,0,0,1-.88,3.9783,14.1766,14.1766,0,0,1-.6919,1.3775c-.2064.257-.4209.504-.6474.7387a42.1206,42.1206,0,0,1-4.608,2.7165,33.9022,33.9022,0,0,0-4.8159,3.2491,25.7045,25.7045,0,0,0-8.9064,13.111,20.1891,20.1891,0,0,0,2.18,15.9245A33.882,33.882,0,0,0,23.81,73.1146c2.0217,1.2933,4.1511,2.3286,6.2383,3.4737a33.5719,33.5719,0,0,1,5.5132,3.8028c3.91,3.5236,7.54,7.4832,11.9687,10.191,5.1129,3.1261,11.145,5.3039,17.0044,5.195,6.4155-.1194,12.0155-3.5658,16.8-8.1674a27.5329,27.5329,0,0,0,5.1323-6.7727,24.8673,24.8673,0,0,0,2.7257-9.8492c.52-6.2842-1.6265-12.3624-2.514-18.4895A25.4812,25.4812,0,0,1,86.6162,48.3909Z"/>
</svg>
