<svg xmlns="http://www.w3.org/2000/svg" viewBox="0 0 100 100">
  <path d="M71.1577,3.4781c-7.8742-4.2649-16.6117-4.56-22.597-1.147a15.0374,15.0374,0,0,0-6.7978,8.8055,60.9759,60.9759,0,0,0-1.6266,9.6858,28.567,28.567,0,0,1-2.3922,7.3836,25.9664,25.9664,0,0,1-4.5831,5.7772c-4.8269,3.908-11.0293,6.2676-15.7857,10.2559a28.9431,28.9431,0,0,0-3.83,3.6866,24.8238,24.8238,0,0,0-2.7593,4.4237A17.9449,17.9449,0,0,0,8.824,61.3905a24.3759,24.3759,0,0,0,4.0807,12.1582A68.9364,68.9364,0,0,0,23.1318,85.628c6.5505,6.2764,15.06,11.4127,23.3988,13.3578a35.1957,35.1957,0,0,0,13.5606.6224c.4044-.0632.7977-.1444,1.1861-.2337a25.6358,25.6358,0,0,0,9.599-2.7824,24.5207,24.5207,0,0,0,7.62-6.4344c4.1491-5.1719,6.2165-11.7108,7.379-18.5619.6886-4.0576,1.1864-8.1863,1.7934-12.2745,1-5.9516,3.0114-11.5254,3.4645-17.6834A41.2189,41.2189,0,0,0,90.19,31.1542a51.4893,51.4893,0,0,0-3.0528-9.89A36.2394,36.2394,0,0,0,71.1577,3.4781Z"/>
</svg>