<svg xmlns="http://www.w3.org/2000/svg" xmlns:xlink="http://www.w3.org/1999/xlink" version="1.1" x="0px" y="0px" viewBox="0 0 100 100" enable-background="new 0 0 100 100" xml:space="preserve"><path d="M80.121,48.557c-2.326,0-4.527,0.505-6.523,1.396c-0.004,0.001-0.01,0-0.014,0.001c-0.549,0.237-1.154,0.367-1.791,0.367  c-2.502,0-4.531-2.028-4.531-4.53c0-0.179,0.01-0.354,0.027-0.525c0.004-0.014-0.002-0.019-0.002-0.027  c0.098-0.855,0.16-1.724,0.16-2.604c0-12.634-10.238-22.871-22.869-22.871c-12.631,0-22.869,10.237-22.869,22.87  c0,2.564,0.441,5.023,1.221,7.326c0.008,0.021,0,0.019,0.01,0.042c0.156,0.458,0.242,0.953,0.242,1.464  c0,2.503-2.029,4.53-4.531,4.53c-0.154,0-0.307-0.01-0.455-0.025c-0.533-0.068-1.07-0.113-1.621-0.113  c-7.037,0-12.746,5.705-12.746,12.748c0,7.039,5.709,12.748,12.75,12.748s12.748-5.709,12.748-12.748  c0-0.215-0.021-0.422-0.031-0.635c0.01-0.053,0.031-0.092,0.031-0.15c0-1.594,0.822-2.997,2.068-3.805  c0.709-0.457,1.557-0.729,2.465-0.729c0.559,0,1.09,0.115,1.584,0.301c2.803,1.223,5.889,1.912,9.141,1.912  c4.635,0,8.94-1.393,12.545-3.762c0.027,0.031,0.062,0.045,0.104,0.014c0.699-0.455,1.535-0.721,2.433-0.721  c2.354,0,4.261,1.82,4.438,4.125C64.4,73.76,71.45,80.648,80.124,80.648c8.862,0,16.049-7.187,16.049-16.047  C96.168,55.739,88.984,48.557,80.121,48.557z M59.543,73.874c-0.908,0-1.756,0.269-2.465,0.729  c-1.246,0.808-2.066,2.209-2.066,3.802c0,2.504,2.029,4.532,4.531,4.532c2.504,0,4.531-2.028,4.531-4.532  C64.074,75.902,62.047,73.874,59.543,73.874z M20.436,29.625c2.133,0,3.859-1.729,3.859-3.859c0-2.13-1.729-3.859-3.859-3.859  c-0.773,0-1.494,0.229-2.1,0.622c-1.061,0.688-1.76,1.881-1.76,3.237C16.576,27.896,18.305,29.625,20.436,29.625z M69.174,31.654  c1.121,0,2.027-0.908,2.027-2.028c0-1.118-0.906-2.026-2.027-2.026c-0.406,0-0.787,0.12-1.104,0.324  c-0.559,0.363-0.928,0.989-0.928,1.702C67.145,30.745,68.053,31.654,69.174,31.654z"/></svg>