<svg xmlns="http://www.w3.org/2000/svg" xmlns:xlink="http://www.w3.org/1999/xlink" version="1.1" x="0px" y="0px" viewBox="0 0 100 100" style="enable-background:new 0 0 100 100;" xml:space="preserve"><polyline class="st0" points="27.53,32.03 45.53,50.03 27.53,68.03 9.53,50.03 27.53,32.03 "/><polyline class="st0" points="90.53,50.03 72.53,68.03 54.53,50.03 72.53,32.03 90.53,50.03 "/><polyline class="st0" points="50.03,5.03 72.53,27.53 68.03,32.03 50.03,14.03 32.03,32.03 27.53,27.53 50.03,5.03 "/><polyline class="st0" points="63.53,36.53 59.03,41.03 50.03,32.03 41.03,41.03 36.53,36.53 50.03,23.03 63.53,36.53 "/><polyline class="st0" points="50.03,50.03 45.53,45.53 50.03,41.03 54.53,45.53 50.03,50.03 "/><polyline class="st0" points="54.53,54.53 50.03,59.03 45.53,54.53 50.03,50.03 54.53,54.53 "/><polyline class="st0" points="63.53,63.53 50.03,77.03 36.53,63.53 41.03,59.03 50.03,68.03 59.03,59.03 63.53,63.53 "/><polyline class="st0" points="50.03,95.03 27.53,72.53 32.03,68.03 50.03,86.03 68.03,68.03 72.53,72.53 50.03,95.03 "/></svg>