<svg xmlns="http://www.w3.org/2000/svg" xmlns:xlink="http://www.w3.org/1999/xlink" version="1.1" x="0px" y="0px" viewBox="0 0 100 100" style="enable-background:new 0 0 100 100;" xml:space="preserve"><path class="st0" d="M76.1,43.4c-0.6-0.3-1.3-2.6-2.9-3c-1-0.3-2.4,1.3-2.9,0.8c-0.9-0.8,0.7-2.8,0.2-3.3c-1.5-1.3-2.8,2.4-3.5,1.9  c-1.2-0.8-0.7-3.3-1.6-2.7c-2.4,1.6-3.6-0.4-5.2,0.2s-3.4,3.4-4.7,0.9c-1.3-2.5-3-3.5-3.5-1.7c-0.4,1.8-1.6,0.3-2.5,1  c-1,0.7-0.4,2.8-1.6,2.8c-1.1,0-1.3,2.1-3,1.5c-1.7-0.7-0.8,0.1-0.8,1.3s-1.5,2.2-3.1,2c-1.7-0.2,0.3,0.4-0.3,1.7  c-0.7,1.2-3.9,1.9-4.8,2.9c-0.9,1,0.9,0.8,0.4,2.3c-0.4,1.6,0,3.1-1.1,3.5c-1.1,0.3,1.3,1.5-0.3,2.1c-1.6,0.7-1.2,2.7,0.3,2.2  c1.4-0.4,1.6-3,2.1-2.2s-0.1,1.2,0.3,2.5c0.4,1.2,2.1,2.3,0.8,2.9c-1.3,0.6-2.8,2.8-1.9,3.4s2.3-2.9,2.8-1.9c0.4,1-2.1,3.6-1.1,4.9  c1,1.3,3.7-1,3.5,0.6c-0.2,1.6,1.1,2.8,0.4,3.5c-0.7,0.7-0.5,1.4-2.5,1.6s-2,3.9,1.3,2.1c2.8-1.6,3.9-0.2,3,1.5c-1,2-3.9,4.1-4,5.5  c-0.1,1.7,2.6,2,3.1-0.1c0.4-2.1,2-3.4,4.1-2.6c2.1,0.8,4.7-1.7,4.6,0.2c-0.1,1.9-1.8,6.7-0.4,7.4c1.3,0.8,2.7-2.1,3.8-2  c1.1,0.1,2,2.3,3.1,2.6c1.1,0.2,2.2-1.3,2.9,0.1c0.7,1.5,1.9,4.6,2.8,3.7c0.9-0.9,2.2,0.3,1.9-1.1c-0.3-1.5,1.5-4.4,1.3-2.3  c-0.3,3.7,1.8,2.8,1.5,1.3c-0.3-1.2,0-2.7,0.2-2.6c1.1,0.9,1.2,1.9,2.5,1.6c1.3-0.3-0.1-3.3,1.2-2.4c1.3,0.9,2.9,5.1,4.6,4.5  c1.7-0.6-1-5.9,0.5-5.4c1.5,0.6,2,1.2,2.4,0.6c0.4-0.7-1-2.6,0.3-2.3c1.2,0.2,3.1,0.8,2.5-0.6c-0.7-1.3-0.1-1.5,0.8-1.8  c0.9-0.3-1.6-4.5,0-5.4c1.6-0.9,1.7-1.8,1.8-3.2c0.1-1.5,2.9-2.6,1.7-3.5c-1.2-0.9-2.3-1.8-1.3-2.9c1-1.1-0.8-2.5,0.8-3.2  s1.9-2,0.4-2c-1.5,0-3-0.1-1.5-1.2c1.6-1.1,2.6-1.9,0.9-3.3c-1.8-1.3-4.8-1.8-3.5-2.9c1.2-1.1,4.3-0.2,4-1.3c-0.3-1.1-3.9,0-3.8-1.1  s1.8-1.9,3.6-1.8c1.8,0.1-0.8-1.5,1.3-2.7c2.1-1.2,1.8-2.6-1.2-0.8c-3,1.8-4.1,4-5.3,2c-1.1-2-2.7-3.2-1.7-4.4  c1-1.1,1.3-1.5,3.5-1.9c2.2-0.5,4-4,0.7-3.3C80.3,40.7,78.7,45.4,76.1,43.4z"/><path class="st0" d="M33.9,76.4c-1.5,0.4-3.4,0.4-2.9,1.8c0.4,1.3-0.3,4,1.5,2S36.3,75.7,33.9,76.4z"/><path class="st0" d="M20.7,89.5c0.2-0.7,0.7-1.3-0.4-0.7c-1.1,0.7-0.2,0.5-2,1c-1.8,0.4-2.7,0.3-3.2,1.7c-0.6,1.5-1.2,2.5,0.1,2.5  s1.5-0.5,2-1.6C17.7,91.3,19.9,91,20.7,89.5z"/><path class="st0" d="M33.4,65.2c-1.4-0.6-4.2,4.4,1.2,0.2c1.4-1.1-0.4-2.1-1.4-0.6L33.4,65.2z"/><path class="st0" d="M29.9,55.4c-0.6,0-3.2,0.2-3.6,0.9c-0.7,1.1,0.5,1.6,2,1.1C29.8,57,34.1,55.2,29.9,55.4z"/><path class="st0" d="M16.6,32.2c4.4-0.9,1.5,2.3,1.7,3.8c0.1,1.2,3.1-3,4.3-0.4c0.6,1.3-3.1,6.9,0.2,5.4c0.3-0.2,3.5-5.4,4.8-2.9  c0.2,0.3,0.1,3,0.5,2.8c1.2-0.4-1.1,5,1.4,2.3c0,0,2.3-7.7,4.5-3.4c0.7,1.4-0.1,4.9,1.7,3.4c1.7-1.4-3-5,3.4-4.2  c1.3,0.2,1.8-0.7,2.5-1.6c3.3,0.8,0.5-2.9,3.5-3.1c1.5-0.1,1.6,3.6,3.7,2.4c2.3-1.5-5.9-6.1,0.2-6.6c2.2-0.2-0.6-2.5,1.6-2.9  c2.7-0.6,3.2-3.4-1.9-2.6c-3.5,0.6-0.7-3.6-0.8-3.8c-0.1,0-2.6-0.9-1.9-1.7c0.6-0.7,3-3,0.9-4c-0.3-0.1-4.5,0.9-3-1.9  c0.5-1-0.3-2.2-1.8-1.8c-2,0.5-2-1.3-2.5-2.1c-1.3,0-1,2-2.7-1c-0.9-1.5-3.8,0.9-4.1-1.9c0-0.3-1.1-0.5-1.6,1  c-0.6,1.9-4.1-2.1-6.6,1.2c-0.6-0.3-0.5,2.3-2.1,0.7C21.8,8.6,22,11,22,11c-2,0-5.2-1.7-2.5,1c2,2-4.2,1.8-3.9,2.5  c0.6,1.1,4.6,2.1-0.2,2.9c-2.8,0.5,1.1,2,0.5,4.1c-0.5,1.9-3.8,4.4-1,4.7C19.2,26.7,12.7,33,16.6,32.2z"/></svg>