<svg xmlns:dc="http://purl.org/dc/elements/1.1/" xmlns:cc="http://creativecommons.org/ns#" xmlns:rdf="http://www.w3.org/1999/02/22-rdf-syntax-ns#" xmlns:svg="http://www.w3.org/2000/svg" xmlns="http://www.w3.org/2000/svg" xmlns:sodipodi="http://sodipodi.sourceforge.net/DTD/sodipodi-0.dtd" xmlns:inkscape="http://www.inkscape.org/namespaces/inkscape" viewBox="0 0 16.933333 16.933333" version="1.1" x="0px" y="0px"><g transform="translate(0,-280.06667)"><path style="color:#000000;font-style:normal;font-variant:normal;font-weight:normal;font-stretch:normal;font-size:medium;line-height:normal;font-family:sans-serif;font-variant-ligatures:normal;font-variant-position:normal;font-variant-caps:normal;font-variant-numeric:normal;font-variant-alternates:normal;font-feature-settings:normal;text-indent:0;text-align:start;text-decoration:none;text-decoration-line:none;text-decoration-style:solid;text-decoration-color:#000000;letter-spacing:normal;word-spacing:normal;text-transform:none;writing-mode:lr-tb;direction:ltr;text-orientation:mixed;dominant-baseline:auto;baseline-shift:baseline;text-anchor:start;white-space:normal;shape-padding:0;clip-rule:nonzero;display:inline;overflow:visible;visibility:visible;opacity:1;isolation:auto;mix-blend-mode:normal;color-interpolation:sRGB;color-interpolation-filters:linearRGB;solid-color:#000000;solid-opacity:1;vector-effect:none;fill:#000000;fill-opacity:1;fill-rule:evenodd;stroke:none;stroke-width:1.99999988;stroke-linecap:butt;stroke-linejoin:miter;stroke-miterlimit:4;stroke-dasharray:none;stroke-dashoffset:0;stroke-opacity:1;color-rendering:auto;image-rendering:auto;shape-rendering:auto;text-rendering:auto;enable-background:accumulate" d="m 361.13672,243.01367 c -4.69114,-0.16852 -9.43724,1.53686 -13.01172,5.11133 -6.3494,6.3494 -6.79866,16.39808 -1.33008,23.26758 0.14045,0.18312 0.21285,0.39545 0.21485,0.60742 -0.002,0.21197 -0.0744,0.4243 -0.21485,0.60742 -5.46858,6.8695 -5.01932,16.91818 1.33008,23.26758 6.35463,6.35462 16.41145,6.79956 23.28125,1.31641 0.17922,-0.13752 0.38631,-0.19304 0.59375,-0.19141 0.21262,0.002 0.4256,0.0639 0.60938,0.20508 6.86835,5.467 16.88912,5.01908 23.23828,-1.33008 6.34444,-6.34445 6.81304,-16.39715 1.35742,-23.26758 -0.14052,-0.18312 -0.21315,-0.39544 -0.21485,-0.60742 0.002,-0.21198 0.0743,-0.4243 0.21485,-0.60742 5.45562,-6.87043 4.98702,-16.92313 -1.35742,-23.26758 -6.34916,-6.34916 -16.36993,-6.79708 -23.23828,-1.33008 C 372.4256,246.9361 372.21262,246.998 372,247 c -0.20744,0.002 -0.41453,-0.0539 -0.59375,-0.19141 -3.00554,-2.39887 -6.62087,-3.66385 -10.26953,-3.79492 z" transform="matrix(0.26458333,0,0,0.26458333,-89.959186,216.56305)"/></g></svg>