<svg xmlns:dc="http://purl.org/dc/elements/1.1/" xmlns:cc="http://creativecommons.org/ns#" xmlns:rdf="http://www.w3.org/1999/02/22-rdf-syntax-ns#" xmlns:svg="http://www.w3.org/2000/svg" xmlns="http://www.w3.org/2000/svg" xmlns:sodipodi="http://sodipodi.sourceforge.net/DTD/sodipodi-0.dtd" xmlns:inkscape="http://www.inkscape.org/namespaces/inkscape" viewBox="0 0 16.933333 16.933333" version="1.1" x="0px" y="0px"><g transform="translate(0,-280.06667)"><path style="color:#000000;font-style:normal;font-variant:normal;font-weight:normal;font-stretch:normal;font-size:medium;line-height:normal;font-family:sans-serif;font-variant-ligatures:normal;font-variant-position:normal;font-variant-caps:normal;font-variant-numeric:normal;font-variant-alternates:normal;font-feature-settings:normal;text-indent:0;text-align:start;text-decoration:none;text-decoration-line:none;text-decoration-style:solid;text-decoration-color:#000000;letter-spacing:normal;word-spacing:normal;text-transform:none;writing-mode:lr-tb;direction:ltr;text-orientation:mixed;dominant-baseline:auto;baseline-shift:baseline;text-anchor:start;white-space:normal;shape-padding:0;clip-rule:nonzero;display:inline;overflow:visible;visibility:visible;opacity:1;isolation:auto;mix-blend-mode:normal;color-interpolation:sRGB;color-interpolation-filters:linearRGB;solid-color:#000000;solid-opacity:1;vector-effect:none;fill:#000000;fill-opacity:1;fill-rule:evenodd;stroke:none;stroke-width:2;stroke-linecap:butt;stroke-linejoin:miter;stroke-miterlimit:4;stroke-dasharray:none;stroke-dashoffset:0;stroke-opacity:1;color-rendering:auto;image-rendering:auto;shape-rendering:auto;text-rendering:auto;enable-background:accumulate" d="m 372,691 c -2.65178,0 -5.19717,1.05264 -7.07227,2.92773 C 363.05265,695.80282 362,698.34822 362,701 v 6.70703 c 0,0.33271 -0.16407,0.64141 -0.43945,0.82813 -0.27538,0.18666 -0.62256,0.2247 -0.93164,0.10156 -2.14448,-0.75536 -4.06987,-1.41417 -6.54025,-2.26313 -3.11507,-1.01443 -6.55138,-0.4446 -9.17655,1.56977 -2.8331,2.17391 -4.29229,5.69583 -3.82617,9.23633 0.46604,3.53992 2.78756,6.56864 6.08594,7.93554 l 7.95703,2.86719 c 0.28152,0.11661 0.49352,0.35376 0.57812,0.64649 0.0847,0.29272 0.0313,0.60464 -0.14453,0.85351 l -5.87109,7.42969 c -0.001,0.002 -0.002,0.004 -0.004,0.006 l -0.008,0.01 c -2.16379,2.83138 -2.65705,6.60723 -1.29297,9.90039 1.36658,3.29924 4.39114,5.61983 7.93164,6.08594 3.5345,0.46533 7.05369,-0.98885 9.22852,-3.8125 8.6e-4,-10e-4 9.5e-4,-0.003 0.002,-0.004 l 0.01,-0.01 5.64844,-7.15039 c 0.18976,-0.2473 0.48125,-0.39064 0.79297,-0.39062 0.31172,-2e-5 0.60321,0.14332 0.79297,0.39062 l 5.64844,7.15039 0.01,0.01 c 0.001,10e-4 0.001,0.003 0.002,0.004 2.17483,2.82365 5.69402,4.27783 9.22852,3.8125 3.5405,-0.46611 6.56506,-2.7867 7.93164,-6.08594 1.36408,-3.29316 0.87082,-7.06901 -1.29297,-9.90039 l -0.008,-0.01 c -0.002,-0.002 -0.003,-0.004 -0.004,-0.006 l -5.87109,-7.42969 c -0.17583,-0.24887 -0.22923,-0.56079 -0.14453,-0.85351 0.0846,-0.29273 0.2966,-0.52988 0.57812,-0.64649 l 7.95703,-2.86719 c 3.29838,-1.3669 5.6199,-4.39562 6.08594,-7.93554 0.46612,-3.5405 -0.99307,-7.06242 -3.82617,-9.23633 -2.5986,-1.99398 -5.992,-2.57252 -9.08187,-1.60009 -2.10036,0.72821 -4.41741,1.53265 -6.63493,2.29345 -0.30908,0.12314 -0.65626,0.0851 -0.93164,-0.10156 C 382.16407,708.34844 382,708.03974 382,707.70703 V 701 c 0,-2.65178 -1.05265,-5.19718 -2.92773,-7.07227 C 377.19717,692.05264 374.65178,691 372,691 Z" transform="matrix(0.26458333,0,0,0.26458333,-89.958318,97.504276)"/></g></svg>