<svg xmlns="http://www.w3.org/2000/svg" viewBox="0 0 100 100">
  <path d="M93.9461,39.449a24.6114,24.6114,0,0,0,3.7606-17.1668C95.932,11.1321,85.3012,2.9975,74.0184,5.1989c-5.6673,1.1058-10.6659,5.6038-16.5551,5.3305-6.95-.3225-13.6441-3.7418-20.6044-4.5162a28.4572,28.4572,0,0,0-12.1846,1.046C13.9,8.7405,6.2988,17.6629,3.6151,28.19.9277,38.7314.8263,51.4748,9.3583,59.42c3.8975,3.63,8.907,5.3733,13.8508,7.0646a31.482,31.482,0,0,1,5.8269,2.3909c3.0332,1.7715,3.6545,3.6335,4.4863,6.94,2.9166,11.5959,12.36,17.7983,23.9271,19.0339,10.7308,1.1462,24.2816-.5364,30.448-10.6257a21.7758,21.7758,0,0,0,2.2247-16.16c-1.1364-5.0729-6.0055-10.6052-4.4972-15.9271C86.9914,47.3157,91.3273,43.5938,93.9461,39.449Z"/>
</svg>
