<svg xmlns="http://www.w3.org/2000/svg" xmlns:xlink="http://www.w3.org/1999/xlink" version="1.1" x="0px" y="0px" viewBox="0 0 100 100" style="enable-background:new 0 0 100 100;" xml:space="preserve"><path class="st0" d="M8.3,62.4c-12.7-2.8,6.6-10.3,7.7-13.1c1.1-2.9-6-11.1-3.3-14.4c2.7-3.2,10.2-3.8,11.8-5.3  c1.6-1.6-0.5-6.1,1.3-7.2c1.8-1.1,7.7,2,8.8,0.3c1.1-1.7-4.2-6.2-1-7.7s4.7,4.4,9.8,3.6c5.1-0.8,4.1-10.9,8.1-10.9  c4,0,3.6,8.5,6.9,7.8c3.3-0.7,3.6,2.7,5.6,0.9c2-1.8,5.1-8.7,6.6-3c1.4,5.7,3.9,4.8,6.1,7.7s0.9,6.7,4.7,7.6  c3.8,0.9,6.2-0.4,5.6,3.6c-0.7,4-3,9.9,3.6,11.8c6.5,1.9,3.1,3.5-2,6c-5.1,2.5,2.8,8,2.1,11.3c-0.7,3.3-5,2.3-8.1,5.9  c-3.1,3.6,2.2,11.4-0.4,13.6c-3.2,2.7-8.6-4-14.5,0.5c-4,3-2.2,13.8-9.5,10.4c-7.4-3.3-7.4,4.8-12.3,3.7c-4.9-1.1-4.2-9-8-11  c-3.8-2-8.9,6-13.5-0.1c-4.6-6.1-8.9,4.2-13.6,1.6c-4.7-2.6,3.4-7.6,6.1-12.2C19.8,68.5,21,65.2,8.3,62.4z"/></svg>