<svg xmlns="http://www.w3.org/2000/svg" viewBox="0 0 100 100">
  <path d="M83.8,81.4743a40.1152,40.1152,0,0,0,5.7512-7.4786,29.679,29.679,0,0,0,3.6621-10.5742c.882-6.1663-.1011-12.56-1.3894-18.62a78.6148,78.6148,0,0,0-3.03-10.8207,55.9806,55.9806,0,0,0-4.4464-9.1323c-1.9909-3.3633-4.1293-6.6227-6.3169-9.8609a30.5884,30.5884,0,0,0-7.425-8.2526A16.42,16.42,0,0,0,59.164,3.6189a17.4067,17.4067,0,0,0-9.655,5.0563c-.9.8826-1.765,1.8-2.6053,2.7391q-1.0087.7641-2.08,1.4472a31.2193,31.2193,0,0,1-5.97,2.549C31.4359,17.18,23.36,15.7068,16.3934,19.34c-3.9838,2.0775-7.6023,5.2186-9.1181,9.594-1.5417,4.45-.78,9.0888,1.0977,13.34.7664,1.7351,1.6906,3.3943,2.518,5.1A37.8574,37.8574,0,0,1,12.96,52.5764a29.67,29.67,0,0,1,.8991,5.7766c-.0419,3.2219-.5356,6.3978-.3875,9.6379a22.137,22.137,0,0,0,3.9991,10.9314,36.1513,36.1513,0,0,0,6.6129,7.3037,38.6128,38.6128,0,0,0,6.9472,4.7509,44.5645,44.5645,0,0,0,16.6307,5.266,45.3531,45.3531,0,0,0,18.1042-1.7642,30.6017,30.6017,0,0,0,9.789-4.9438A69.03,69.03,0,0,0,83.8,81.4743Z"/>
</svg>
