<svg xmlns="http://www.w3.org/2000/svg" viewBox="0 0 24 24" fill="none" x="0px" y="0px"><path d="M19.9576 17.3266L19.0453 15.7579L19.2238 15.6386C19.36 15.5475 19.403 15.367 19.3223 15.2245L18.2385 13.3092L18.3986 13.2284C18.4799 13.1873 18.5393 13.1129 18.5613 13.0246C18.5834 12.9363 18.5657 12.8427 18.5131 12.7684L17.1624 10.8591C17.1036 10.7761 17.0081 10.7267 16.9062 10.7267C16.8044 10.7267 16.7089 10.7761 16.6501 10.8592L16.3969 11.2171L16.8724 12.0574C17.1129 12.4824 16.9831 13.0281 16.5768 13.2997L16.5101 13.3444L18.0719 16.0298C18.2405 16.3195 18.2412 16.6799 18.0738 16.9701C17.9064 17.2604 17.594 17.4408 17.2585 17.4408H13.8157C13.8062 17.5086 13.819 17.5788 13.8544 17.64C13.9103 17.737 14.014 17.7969 14.1261 17.7969H16.5927V18.5857C16.5927 18.7586 16.7331 18.8988 16.9062 18.8988C17.0794 18.8988 17.2198 18.7586 17.2198 18.5857V17.7969H19.6864C19.7986 17.7969 19.9022 17.737 19.9582 17.64C20.0141 17.5429 20.0139 17.4234 19.9576 17.3266ZM6.74154 17.4408C6.40601 17.4408 6.09359 17.2604 5.9263 16.9702C5.75885 16.6799 5.75954 16.3196 5.92802 16.0299L7.48986 13.3444L7.42316 13.2998C7.01689 13.0281 6.88707 12.4824 7.12762 12.0574L7.60312 11.2171L7.34982 10.8591C7.29105 10.7761 7.19557 10.7267 7.09369 10.7267C6.99184 10.7267 6.89635 10.7761 6.83759 10.8592L5.48682 12.7684C5.43427 12.8427 5.41664 12.9362 5.43866 13.0246C5.46064 13.1129 5.52009 13.1873 5.60143 13.2284L5.76148 13.3092L4.6777 15.2244C4.59704 15.367 4.63997 15.5475 4.77622 15.6386L4.95474 15.7579L4.04242 17.3266C3.98607 17.4234 3.98585 17.543 4.04182 17.64C4.09777 17.7371 4.2014 17.7969 4.31357 17.7969H6.78011V18.5857C6.78011 18.7586 6.92053 18.8987 7.09369 18.8987C7.26688 18.8987 7.40726 18.7586 7.40726 18.5857V17.7969H9.87387C9.98603 17.7969 10.0896 17.7371 10.1456 17.64C10.181 17.5787 10.1938 17.5086 10.1843 17.4408H6.74154ZM17.2585 16.8146C17.3706 16.8146 17.4743 16.7548 17.5302 16.6577C17.5862 16.5607 17.586 16.4412 17.5296 16.3444L15.6724 13.151L16.2278 12.7795C16.3641 12.6884 16.407 12.5079 16.3263 12.3654L15.9967 11.7828L14.1324 8.48843L14.6964 8.20363C14.7371 8.18312 14.7723 8.15422 14.8 8.11947C14.8139 8.10207 14.826 8.08322 14.8359 8.06318C14.8408 8.05317 14.8453 8.04283 14.8492 8.03228C14.8531 8.0217 14.8564 8.01087 14.8591 7.99982C14.8619 7.9888 14.8641 7.97765 14.8655 7.96654C14.8747 7.89957 14.8619 7.83148 14.829 7.7724C14.8236 7.76254 14.8176 7.75296 14.811 7.74366L12.2561 4.13243C12.2268 4.09092 12.1882 4.05779 12.1442 4.03506C12.1003 4.01233 12.0509 4 12 4C11.9491 4 11.8997 4.01233 11.8558 4.03506C11.8118 4.05779 11.7732 4.09092 11.7439 4.13243L9.18901 7.74366C9.18242 7.75296 9.17643 7.76254 9.17094 7.7724C9.13808 7.83148 9.12529 7.89957 9.13444 7.96654C9.13595 7.97765 9.13808 7.9888 9.14084 7.99982C9.1436 8.01087 9.14689 8.0217 9.15081 8.03228C9.15467 8.04283 9.15915 8.05317 9.16411 8.06318C9.17405 8.08322 9.18606 8.10207 9.19998 8.11947C9.22773 8.15422 9.26292 8.18312 9.30359 8.20363L9.86759 8.48843L8.00334 11.7828L7.67364 12.3654C7.59299 12.5079 7.63592 12.6884 7.77214 12.7795L8.32758 13.151L6.47038 16.3444C6.41403 16.4412 6.41381 16.5607 6.46979 16.6577C6.52573 16.7548 6.62937 16.8146 6.74153 16.8146H11.6864V18.5857C11.6864 18.7586 11.8268 18.8987 12 18.8987C12.1732 18.8987 12.3136 18.7586 12.3136 18.5857V16.8146H17.2585Z" fill="black"/></svg>