<svg xmlns="http://www.w3.org/2000/svg" xmlns:xlink="http://www.w3.org/1999/xlink" viewBox="0 0 68 68" version="1.1" x="0px" y="0px"><g stroke="none" stroke-width="1" fill="none" fill-rule="evenodd"><g transform="translate(-416.000000, -536.000000)" fill="#000000" fill-rule="nonzero"><path d="M427,555 C422.465814,555 416,549.096022 416,544.5 C416,539.642207 419.749088,536 425,536 C430.172295,536 433,539.461894 433,544.5 C433,546.849355 432.739649,549.013364 432.130676,550.755984 C431.226545,553.343218 429.52513,555 427,555 Z M475.070527,545.012038 C477.603021,549.469563 476.820184,553.06081 473.513626,559.408413 C471.520246,563.235105 471,564.504382 471,566 C471,567.330906 472.259877,568.781528 475.487948,571.227035 C475.666672,571.362432 475.854509,571.503779 476.087082,571.67807 C476.206281,571.767399 476.391312,571.905847 476.698961,572.136098 C481.99119,576.099906 484,578.321966 484,582 C484,592.853557 479.271904,603.343561 470.142332,603.994929 C465.153749,604.350849 462.145762,602.301661 457.672233,597.058445 C457.481592,596.835004 456.836826,596.075131 456.754551,595.978445 C453.670573,592.354298 451.860017,590.765215 449.342475,589.888825 C446.715363,588.974292 444.567978,589.227737 439.693925,590.620596 C437.708551,591.187957 436.885896,591.406556 435.777432,591.630894 C431.597025,592.476951 428.191705,592.014642 424.840315,589.629457 C421.125535,586.985648 420.562073,583.433724 422.792676,579.858578 C424.361043,577.344843 427.15522,574.893742 431.291604,572.032808 C432.188349,571.412573 433.108897,570.79907 434.269242,570.042345 C434.359699,569.983352 436.383732,568.669902 436.899454,568.33003 C438.911251,567.004213 439.943386,564.444322 441.539665,557.827367 L441.566023,557.718099 C442.553809,553.623232 443.060049,551.848806 443.938128,549.873909 C445.199157,547.037716 446.879316,545.094433 449.257067,544.143107 C455.006815,541.842664 458.798343,540.621436 462.671396,540.142723 C468.352067,539.440586 472.699497,540.838709 475.070527,545.012038 Z"/></g></g></svg>