<svg xmlns="http://www.w3.org/2000/svg" data-name="Layer 1" viewBox="0 0 5 5" x="0px" y="0px"><path d="M2.37646,3.97443c-.03274.03588-.06529.073-.09956.10844a.249.249,0,0,1-.05134.04158.05822.05822,0,0,1-.08007-.01413.06058.06058,0,0,1,.00206-.08177c.01933-.02573.03854-.05166.05944-.0761q.24627-.28793.49324-.57527.06712-.0782.13465-.156l-.007-.00663c-.11364.11176-.22969.2212-.3403.33588-.12982.1346-.25518.27353-.38191.4111-.03752.04072-.07471.07605-.133.03369-.00468-.0034-.01472.00162-.02117-.00055-.021-.007-.04946-.01008-.05979-.02514a.07353.07353,0,0,1-.00189-.06458,1.52144,1.52144,0,0,1,.08728-.12906l.023-.03257L1.99,3.73314a.45146.45146,0,0,1-.038.0479c-.07379.07158-.14889.14182-.22278.21329-.0532.05146-.06821.05349-.13066.00883-.06174.068-.12345.137-.18652.20466a.16092.16092,0,0,1-.05412.0429c-.06725.026-.11332-.01427-.09921-.09489-.03313.0303-.05917.0571-.08838.07983a.22944.22944,0,0,1-.07254.042.063.063,0,0,1-.07827-.08487.31545.31545,0,0,1,.04471-.08509c.09985-.13091.20171-.26028.30287-.39019l.01678-.02158a.08082.08082,0,0,1-.02445-.109.2458.2458,0,0,1-.03784.03506c-.02.01091-.04482.02956-.06244.025-.03623-.00939-.05563.00914-.07813.02771a.07.07,0,0,1-.09137.01287c-.03353-.02346-.02851-.05741-.01775-.09084A.18675.18675,0,0,1,1.086,3.56238a.0628.0628,0,0,0,.00422-.07423c-.00875-.01378-.00028-.043.00791-.06195a.66766.66766,0,0,1,.04866-.0802l-.0266.0023a.0598.0598,0,0,1-.05956-.09c.0159-.03206.03691-.06155.05483-.09265.03-.052.057-.10581.08935-.15626.05275-.08229.10877-.16247.16336-.24357a.02594.02594,0,0,0,.005-.02223c-.03144.03344-.0634.0664-.09422.1004-.06406.07066-.12738.142-.19134.21272a.2304.2304,0,0,1-.03262.03018A.06444.06444,0,0,1,.9671,3.08533a.06188.06188,0,0,1-.00178-.08766c.06515-.08108.13193-.16086.19794-.24126.08466-.10312.16919-.20633.25109-.31167-.03516.03281-.07163.06434-.10526.09866-.11008.11235-.21866.22617-.3291.33815A.12012.12012,0,0,1,.92114,2.917a.07072.07072,0,0,1-.05776-.01909.07291.07291,0,0,1-.006-.06034A.22971.22971,0,0,1,.9,2.7776c.06481-.08118.13-.16207.19627-.24459-.0125-.00761-.02214-.0127-.03094-.019a.06188.06188,0,0,1-.01656-.09867q.11744-.13894.23973-.27376c.06313-.06944.12981-.13566.19137-.20739-.05207.043-.10372.08643-.15632.12874-.05789.04656-.11549.09366-.17577.137a.10052.10052,0,0,1-.06465.0159.047.047,0,0,1-.03626-.07673.39233.39233,0,0,1,.063-.07755c.04215-.04007.08756-.07671.13161-.11479l-.01543-.0165c-.04742.03527-.09409.0716-.14249.10547-.04048.02833-.08215.05525-.125.07971a.10281.10281,0,0,1-.0533.011C.87029,2.12477.851,2.10031.86438,2.068a.563.563,0,0,1,.06725-.12275,4.16154,4.16154,0,0,1,.67592-.70788.35714.35714,0,0,0,.04317-.04106c-.18152.08392-.35678.18139-.54552.24829L1.1,1.43552l.03107-.02241A5.59193,5.59193,0,0,1,1.98644.94347c.03056-.01339.05895-.032.08995-.044A.111.111,0,0,1,2.1205.90211c-.00386.01518-.00273.03581-.01239.04466-.06666.061-.137.118-.20349.17925q-.295.27163-.58807.54542l.007.00927a.146.146,0,0,0,.01853-.011,7.0841,7.0841,0,0,1,.91586-.62683c.029-.01662.05647-.03581.08509-.05308.04829-.02914.07166-.024.103.02386.07208-.04492.14456-.08941.21634-.135.06584-.04183.13082-.085.1964-.12724A.37907.37907,0,0,1,2.90384.72588a.05115.05115,0,0,1,.069.01716.05218.05218,0,0,1-.00838.07088.254.254,0,0,0-.0268.0255c-.01025.01512-.01707.03252-.02616.04849A.24253.24253,0,0,1,2.8757.946c-.0556.05276-.11388.10268-.16689.16005.01339-.009.02719-.01746.04009-.02713C2.824,1.0227,2.89748.9642,2.97457.91086A.15669.15669,0,0,1,3.05812.88722c.034-.00035.04562.02894.04786.06681.03332-.02667.06249-.05066.09237-.07373a.74392.74392,0,0,1,.087-.06318.096.096,0,0,1,.063-.01131.06421.06421,0,0,1,.04231.03893.09392.09392,0,0,1-.02058.05785C3.36289.91381,3.34636.919,3.33345.92733l.06373.05183c.0672-.04988.13832-.10309.21-.1556a.61333.61333,0,0,1,.074-.04922.06026.06026,0,0,1,.08266.01783A.06129.06129,0,0,1,3.7553.8764C3.74021.89274,3.72293.907,3.70693.92256c-.0197.0191-.04482.03377-.03224.07063.00373.01094-.01111.03205-.02241.04367-.0742.07628-.14977.15123-.22275.23062a.12016.12016,0,0,0,.0191-.00938q.10208-.07435.2037-.14933c.027-.02.05415-.03119.0845-.0079a.0613.0613,0,0,1,.00931.0871.54184.54184,0,0,1-.07106.08033q-.228.22656-.457.45215a.1306.1306,0,0,0-.034.048c.02527-.01851.05031-.03735.07586-.05547q.26367-.187.52746-.37383c.03432-.02436.06716-.05086.10213-.0742a.06364.06364,0,0,1,.09039.006.062.062,0,0,1-.00839.09021c-.07.06464-.14352.1255-.21553.188-.05145.04464-.1034.08874-.15358.13477a.04228.04228,0,0,0-.01128.03564A.09675.09675,0,0,1,3.56059,1.83c-.10241.09358-.20541.18655-.3064.28165-.08906.08387-.17572.17029-.26344.25559l.00753.009a.22948.22948,0,0,0,.02124-.01442q.26894-.22856.53788-.45711a.44027.44027,0,0,1,.08154-.058.28059.28059,0,0,1,.07235-.016c.013-.00258.02619-.00423.039-.00734.03033-.00734.06065-.01116.07945.02049.01864.03138.00326.05678-.01987.079a.05735.05735,0,0,0-.02012.03048c.01586-.01258.03278-.024.04733-.038a.05888.05888,0,0,1,.07708-.01422.0611.0611,0,0,1,.02246.079.14583.14583,0,0,1-.03561.05076c-.1175.11547-.23591.23-.35394.345a.03262.03262,0,0,0-.011.02254c.07-.05413.14061-.1076.21-.16255.09125-.07227.18147-.14584.27242-.21849a.28087.28087,0,0,1,.04292-.029.05271.05271,0,0,1,.07016.014.05164.05164,0,0,1,.00078.07149c-.02406.02816-.051.05391-.07716.08023-.09851.09908-.19721.198-.29276.30052.04974-.04127.09926-.08281.14934-.12367a.292.292,0,0,1,.04843-.03407.04719.04719,0,0,1,.06607.01387.09006.09006,0,0,1,.00488.06462c-.00573.01822-.02539.03268-.0404.04727-.079.07669-.15841.1529-.23364.235a.22244.22244,0,0,0,.0228-.01288c.06711-.0487.13451-.097.20083-.14677.04371-.03279.07682-.03426.09982-.00122.02736.03931.01663.07437-.02554.106a.746.746,0,0,0-.07723.07465c-.04614.04652-.09191.0934-.13418.14532.05218-.03919.10447-.07825.1565-.11765.01873-.01419.03568-.03106.0555-.04338a.05123.05123,0,0,1,.07113.00525.08648.08648,0,0,1,.01365.06676.17551.17551,0,0,1-.04761.06918c-.10476.10187-.21119.202-.317.30279a.238.238,0,0,0-.043.04941c.02327-.01539.04594-.0318.07-.04591a.05189.05189,0,0,1,.0737.00687.05092.05092,0,0,1-.009.07318.58847.58847,0,0,0-.05625.06273A.4437.4437,0,0,1,3.86,3.22941a.04879.04879,0,0,1,.06456.02054.04819.04819,0,0,1-.0148.06312.80661.80661,0,0,0-.09083.09022l.05419-.02253a.13981.13981,0,0,1,.04513-.0158c.01513-.00022.03764.00512.04356.01558a.04837.04837,0,0,1-.00992.04461c-.03908.03785-.08161.07212-.12281.1078l-.04128.03638.00459.00837.07676-.03674a.12192.12192,0,0,1,.03315-.01605.14915.14915,0,0,1,.04036.00572c-.00263.01229-.00146.02779-.00861.03628-.02229.02645-.04749.05049-.072.075q-.03548.03546-.07193.07c-.04248.04-.0645.03587-.08832-.01659-.02911-.00059-.0643.03622-.08686-.003-.02331-.04048.02557-.0581.04453-.09661-.05446.03307-.10078.06184-.14775.08951-.0405.02386-.08194.04614-.1226.06976a.063.063,0,0,1-.093-.01145c-.05087.02067-.0947.10908-.15364.01287-.033.023-.06281.04469-.0935.06511-.059.03928-.09588.026-.117-.04573-.02.01579-.03806.03169-.05778.04509a.4028.4028,0,0,1-.06684.03925.05711.05711,0,0,1-.07054-.01741.058.058,0,0,1-.00236-.07267.46346.46346,0,0,1,.0401-.04857c.05019-.05766.10057-.11515.14533-.17814-.03972.03771-.0802.07466-.119.11328q-.15279.152-.3044.30519C2.45315,4.00528,2.43139,4.00811,2.37646,3.97443Z"/></svg>