<svg xmlns="http://www.w3.org/2000/svg" xmlns:xlink="http://www.w3.org/1999/xlink" viewBox="0 0 100 100" version="1.1" x="0px" y="0px"><g stroke="none" stroke-width="1" fill="none" fill-rule="evenodd"><path d="M80.4436342,70.275 C78.9176342,69.962 77.4386342,69.939 76.0376342,70.155 C72.2466342,70.738 68.4006342,69.598 65.4536342,67.143 L64.5866342,66.42 C60.6676342,63.155 58.5566342,57.979 59.7256342,53.015 C60.4826342,49.801 60.6326342,46.353 60.0346342,42.788 C58.1886342,31.79 49.0146342,23.02 37.9446342,21.665 C21.1176342,19.606 6.99863415,33.828 9.23363415,50.684 C10.6856342,61.633 19.3706342,70.669 30.2626342,72.496 C35.4236342,73.361 40.3586342,72.683 44.6886342,70.851 C49.0256342,69.017 53.9476342,69.223 57.8026342,71.926 L59.6726342,73.236 C63.1436342,75.669 65.0116342,79.599 65.4706342,83.813 C65.5356342,84.412 65.6476342,85.022 65.8096342,85.638 C67.0546342,90.377 71.1126342,94.128 75.9586342,94.855 C84.5146342,96.139 91.7486342,88.736 90.1696342,80.137 C89.2726342,75.256 85.3056342,71.272 80.4436342,70.275 M65.1136342,17.637 C65.1136342,10.658 70.7716342,5 77.7506342,5 C84.7296342,5 90.3876342,10.658 90.3876342,17.637 C90.3876342,24.616 84.7296342,30.274 77.7506342,30.274 C70.7716342,30.274 65.1136342,24.616 65.1136342,17.637" fill="#000000"/></g></svg>