<svg xmlns="http://www.w3.org/2000/svg" xmlns:xlink="http://www.w3.org/1999/xlink" xml:space="preserve" version="1.1" style="shape-rendering:geometricPrecision;text-rendering:geometricPrecision;image-rendering:optimizeQuality;" viewBox="0 0 185 185" x="0px" y="0px" fill-rule="evenodd" clip-rule="evenodd"><defs></defs><g><path class="fil0" d="M100 17c9,41 -25,39 -32,20 -4,-13 7,-32 -9,-32 -7,0 -10,6 -8,12 6,11 10,21 5,28 -18,24 -37,0 -47,-1 -10,-1 -13,11 -1,13 7,1 15,5 24,10 42,23 1,57 -14,80 -13,22 9,21 14,15 5,-8 2,-16 14,-32 4,-6 10,-13 18,-15 17,-4 22,10 17,22 -5,13 -10,24 -12,32 -1,13 11,17 18,14 21,-10 -14,-37 18,-60 4,-3 11,-5 17,0 5,5 5,13 8,22 7,21 35,8 23,-6 -6,-8 -18,-9 -20,-23 -2,-9 4,-16 12,-19 14,-7 23,3 31,0 15,-5 5,-25 -11,-19 -44,17 -64,-23 -52,-42 24,-38 -19,-49 -13,-19z"/><path class="fil1" d="M10 75c-2,-3 0,-6 2,-7 3,-1 7,0 8,3 1,3 0,6 -3,7 -3,1 -6,0 -7,-3z"/><path class="fil1" d="M135 39c-4,-9 0,-19 9,-23 9,-4 19,0 23,9 4,8 0,19 -9,23 -9,4 -19,0 -23,-9z"/><path class="fil1" d="M3 108c-3,-7 0,-14 6,-17 7,-3 14,0 17,6 3,7 0,15 -6,17 -7,3 -14,0 -17,-6z"/><path class="fil1" d="M18 44c0,-2 0,-4 2,-5 2,-1 3,0 4,2 1,1 0,3 -1,4 -2,1 -4,0 -5,-1z"/><path class="fil1" d="M151 67c-1,-2 0,-4 1,-5 2,0 4,0 5,2 0,2 0,4 -2,4 -2,1 -4,0 -4,-1z"/><path class="fil1" d="M155 105c-1,-1 0,-2 1,-3 1,0 3,0 3,2 1,1 0,2 -1,3 -1,0 -3,0 -3,-2z"/><path class="fil1" d="M179 105c-1,-1 0,-3 1,-4 2,-1 4,0 5,2 1,1 0,3 -2,4 -1,1 -3,0 -4,-2z"/><path class="fil1" d="M125 57c-1,-2 0,-5 2,-6 2,-1 5,0 6,2 1,2 0,5 -2,6 -3,1 -5,0 -6,-2z"/></g></svg>