<svg xmlns="http://www.w3.org/2000/svg" viewBox="0 0 100 100">
  <path d="M90.5781,57.1361a18.9964,18.9964,0,0,0-3.8438-6.6329c-2.8907-3.3973-6.916-5.5388-10.4752-8.1494A26.5964,26.5964,0,0,1,72.616,38.72a33.6684,33.6684,0,0,1-3.5142-6.1268c-2.1547-5.4286-3.3331-11.3106-6.5191-16.2818A28.3937,28.3937,0,0,0,48.28,5.0537a25.21,25.21,0,0,0-9.6505-1.5314,18.3443,18.3443,0,0,0-4.1834.9123c-5.0477,1.1841-8.7272,4.8981-11.7632,8.8681a53.4232,53.4232,0,0,0-6.3353,10.79,87.6969,87.6969,0,0,0-7.382,27.4545,63.2879,63.2879,0,0,0,.6968,13.9476A55.3044,55.3044,0,0,0,12.701,78.892a29.9559,29.9559,0,0,0,7.6413,11.5887,23.6579,23.6579,0,0,0,5.5866,3.8321,22.6691,22.6691,0,0,0,7.4537,2.0925c5.48.5839,10.9978-1.6391,15.5965-4.4271,4.0746-2.47,7.7792-5.5306,12.13-7.5216,3.4991-1.358,7.1811-2.1316,10.7835-3.1668a35.0007,35.0007,0,0,0,12.2556-5.9176,18.361,18.361,0,0,0,6.7267-10.7535A15.5743,15.5743,0,0,0,90.5781,57.1361Z"/>
</svg>