<svg xmlns="http://www.w3.org/2000/svg" viewBox="0 0 100 100">
  <path d="M90.3467,52.5248a33.89,33.89,0,0,0-3.1405-12.3584A48.856,48.856,0,0,0,76.4225,26.1389,97.1139,97.1139,0,0,0,62.7884,15.0252,88.9881,88.9881,0,0,0,47.5453,7.0126q-1.756-.7162-3.537-1.3367a22.9147,22.9147,0,0,0-3.8511-1.0844C34.066,3.2368,29.1689,3.0292,23.08,4.9845a21.7133,21.7133,0,0,0-5.2282,2.5273,11.711,11.711,0,0,0-1.4107,1.1134,19.8616,19.8616,0,0,0-2.7818,2.79A19.502,19.502,0,0,0,10.0552,19.08a23.2542,23.2542,0,0,0,.05,9.3438c.7783,3.8965,2.6412,7.3189,4.0485,10.9218a47.7753,47.7753,0,0,1,1.6737,7.4408,49.5737,49.5737,0,0,1,.0106,7.8254c-.9589,6.454-3.3351,12.4748-3.3813,19.1562a23.1914,23.1914,0,0,0,4.3981,14.2839,18.9574,18.9574,0,0,0,2.795,2.7405,10.3681,10.3681,0,0,0,1.5559,1.1029,29.567,29.567,0,0,0,5.32,2.4737,41.75,41.75,0,0,0,9.7975,1.8158,73.75,73.75,0,0,0,7.99.25A45.4805,45.4805,0,0,0,54,95.1814a31.8516,31.8516,0,0,0,9.1831-4.1088c2.2893-1.4317,4.4634-3.1207,6.676-4.7139,2.1726-1.5644,4.3531-3.122,6.419-4.8878A43.0834,43.0834,0,0,0,83.3,74.2819a43.1752,43.1752,0,0,0,3.3246-5.2679,39.0348,39.0348,0,0,0,2.3744-5.9728,21.6134,21.6134,0,0,0,.92-3.8829A31.7239,31.7239,0,0,0,90.3467,52.5248Z"/>
</svg>
