<svg xmlns="http://www.w3.org/2000/svg" viewBox="0 0 100 100">
  <path d="M13.395,61.2956a32.6443,32.6443,0,0,0,5.0648,9.73,25.1509,25.1509,0,0,0,7.3678,6.1973c5.6372,3.24,11.4993,6.27,17.6419,7.8471,5.5626,1.4281,11.2807,1.9547,16.7682,3.8016a33.2268,33.2268,0,0,1,3.3927,1.356c2.7083,1.4618,5.3261,3.2963,8.2267,4.1441,3.6146,1.0566,7.9489.8693,11.0865-1.7652,3.567-2.9951,5.4266-7.6312,5.52-12.7849a34.9434,34.9434,0,0,0-2.6939-13.19c-1.26-3.116-3.6849-4.6753-5.6186-7.3343A35.4851,35.4851,0,0,1,77.21,53.5826a25.2352,25.2352,0,0,1-.8363-3.5354,21.21,21.21,0,0,1-.0135-2.5737,18.5009,18.5009,0,0,1,.4913-2.0847c1.0579-2.5907,2.505-4.92,3.673-7.4427a33.8161,33.8161,0,0,0,3.1745-12.2492A22.7677,22.7677,0,0,0,81.4243,14.38a16.33,16.33,0,0,0-8.842-7.9857,25.8379,25.8379,0,0,0-9.6989-1.3606c-3.0584.0494-6.12.2907-9.174.4877-6.027.3887-12.28.6451-18.1241,2.58a25.6541,25.6541,0,0,0-8.3835,4.4874A35.3452,35.3452,0,0,0,20.0076,21.06a51.7983,51.7983,0,0,0-4.1389,8.1218,58.2476,58.2476,0,0,0-3.4072,10.8953C11.103,47.0306,11.09,54.612,13.395,61.2956Z"/>
</svg>
