<svg xmlns="http://www.w3.org/2000/svg" viewBox="0 0 100 100">
  <path d="M90.1678,68.3916a15.3587,15.3587,0,0,1-3.7558,5.2837,26.0382,26.0382,0,0,1-4.3968,3.07c-5.2585,3.26-10.5566,6.46-15.8438,9.6713-4.9946,3.0342-10.0808,5.8762-15.6984,7.5817-6.0521,1.8367-12.3124,2.7972-18.6284,1.83a7.5427,7.5427,0,0,1-1.7163-.474,9.0369,9.0369,0,0,1-2.772-1.106l-3.7056-2.1921a5.1793,5.1793,0,0,1-1.7378-1.68A38.1312,38.1312,0,0,1,9.1355,66.6789C7.8931,56.5209,10.8518,46.5874,14.4443,37.2c1.9012-4.9695,3.8492-9.9947,6.7774-14.4687A41.671,41.671,0,0,1,31.8985,11.74,48.39,48.39,0,0,1,47.1391,4.3737,17.4338,17.4338,0,0,1,63.4748,8.582c4.6769,4.2082,8.3016,9.49,8.7684,15.9425a49.0879,49.0879,0,0,1-.2011,8.4093c-.2011,2.0431-.4291,4.0791-.4506,6.1311a21.1616,21.1616,0,0,0,.4883,3.4417,13.58,13.58,0,0,0,.5853,1.3357c.1741.228.3555.4488.5476.6642.3016.2316.6158.4471.9389.6482,1.0054.465,2.0449.8509,3.0844,1.2388A35.5925,35.5925,0,0,1,82.4389,48.81,17.5342,17.5342,0,0,1,89.97,57.2193,15.0533,15.0533,0,0,1,90.1678,68.3916Z"/>
</svg>
