<svg xmlns="http://www.w3.org/2000/svg" xmlns:xlink="http://www.w3.org/1999/xlink" version="1.0" x="0px" y="0px" viewBox="0 0 100 100" enable-background="new 0 0 100 100" xml:space="preserve"><path d="M48.1534348,11.7619305H16.4500141c-6.1412687,0-11.1177387,4.9762363-11.1177387,11.117506v31.7050896  c0,6.1412697,4.97647,11.1209183,11.1177387,11.1209183h31.7034206c6.1408806,0,11.1209221-4.9796486,11.1209221-11.1209183  V22.8794365C59.2743568,16.7381668,54.2943153,11.7619305,48.1534348,11.7619305z"/><path d="M88.5045242,33.0447998H69.3097229c-3.7171402,0-6.735157,3.0149879-6.735157,6.7286339V58.970253  c0,3.7202072,3.0180168,6.7351913,6.735157,6.7351913h19.1948013c3.7205505,0,6.732048-3.0149841,6.732048-6.7351913V39.7734337  C95.2365723,36.0597878,92.2250748,33.0447998,88.5045242,33.0447998z"/><path d="M77.1422272,69.7399445H66.3590775c-2.0880737,0-3.7845116,1.6946945-3.7845116,3.7879639V84.307991  c0,2.0894699,1.6964378,3.7845078,3.7845116,3.7845078h10.7831497c2.089859,0,3.7831879-1.6950378,3.7831879-3.7845078V73.5279083  C80.925415,71.434639,79.2320862,69.7399445,77.1422272,69.7399445z"/><path d="M56.8350182,69.7399445h-6.9482002c-1.3468742,0-2.4389496,1.0938187-2.4389496,2.4375916v6.9547577  c0,1.343811,1.0920753,2.4376297,2.4389496,2.4376297h6.9482002c1.3485832,0,2.4393387-1.0938187,2.4393387-2.4376297V72.177536  C59.2743568,70.8337631,58.1836014,69.7399445,56.8350182,69.7399445z"/></svg>