<svg xmlns="http://www.w3.org/2000/svg" xmlns:xlink="http://www.w3.org/1999/xlink" viewBox="0 0 100 100" version="1.1" x="0px" y="0px"><g stroke="none" stroke-width="1" fill="none" fill-rule="evenodd"><path d="M11.9915462,51.2024911 C15.2085462,51.2024911 15.2145462,46.2024911 11.9915462,46.2024911 C8.77454621,46.2024911 8.76854621,51.2024911 11.9915462,51.2024911 M25.0335462,22.7084911 C25.8915462,23.6004911 26.9425462,24.3654911 28.1135462,24.7884911 C28.6295462,24.9754911 25.5865462,16.6704911 22.7455462,13.1844911 C20.5215462,10.4544911 20.2535462,13.9404911 20.9295462,15.7614911 C21.8455462,18.2294911 23.1985462,20.8014911 25.0335462,22.7084911 M20.1175462,65.1044911 C20.0825462,65.1274911 20.0475462,65.1504911 20.0115462,65.1734911 C16.2495462,67.6234911 12.5165462,70.0864911 9.05154621,72.9544911 C6.33954621,75.1994911 9.82754621,75.4404911 11.6425462,74.7504911 C14.1045462,73.8154911 16.6655462,72.4424911 18.5585462,70.5924911 C19.4435462,69.7274911 20.1995462,68.6704911 20.6135462,67.4964911 C20.7965462,66.9784911 21.5125462,64.1964911 20.1175462,65.1044911 M15.0985462,37.4004911 C15.3375462,37.3104911 15.6085462,36.9944911 15.5395462,36.7574911 C15.4795462,36.5514911 15.1855462,36.4964911 15.0145462,36.4284911 C14.7545462,36.3244911 14.4955462,36.2224911 14.2345462,36.1214911 C12.8435462,35.5794911 11.4105462,35.0694911 9.93254621,34.8324911 C9.08854621,34.6784911 8.23654621,34.5774911 7.38054621,34.5324911 C6.82754621,34.5024911 6.24754621,34.5014911 5.75254621,34.7494911 C5.25754621,34.9974911 4.88154621,35.5684911 5.03454621,36.1014911 C5.24154621,36.8174911 6.15754621,36.9944911 6.90154621,37.0424911 C9.24454621,37.1914911 11.5865462,37.3404911 13.9305462,37.4904911 C14.3235462,37.5154911 14.7305462,37.5384911 15.0985462,37.4004911 M51.6695462,80.6854911 C51.3785462,80.4714911 51.3255462,80.7624911 51.2285462,81.0094911 C50.8635462,81.9404911 50.9555462,83.0094911 51.3735462,83.9074911 C51.5385462,84.2624911 51.8245462,84.8604911 52.2125462,85.0144911 C52.6185462,85.1744911 52.9865462,84.7864911 53.1205462,84.4394911 C53.3415462,83.8664911 53.1395462,83.1844911 52.9425462,82.6314911 C52.6945462,81.9344911 52.2785462,81.1344911 51.6695462,80.6854911 M47.2835462,17.7824911 C47.5635462,18.1464911 47.7305462,17.8094911 47.9355462,17.5424911 C48.7075462,16.5364911 48.9705462,15.2004911 48.7775462,13.9594911 C48.7005462,13.4684911 48.5615462,12.6384911 48.1425462,12.3144911 C47.7055462,11.9764911 47.1195462,12.3204911 46.8345462,12.6964911 C46.3635462,13.3164911 46.3695462,14.2194911 46.4155462,14.9634911 C46.4725462,15.9004911 46.6995462,17.0214911 47.2835462,17.7824911 M16.1195462,28.6814911 C16.9025462,29.1994911 17.9345462,29.6934911 18.8945462,29.6844911 C19.3525462,29.6804911 19.1845462,29.3444911 19.0945462,29.0204911 C18.7555462,27.7974911 17.8465462,26.7834911 16.7395462,26.1914911 C16.3015462,25.9564911 15.5555462,25.5684911 15.0445462,25.7084911 C14.5115462,25.8544911 14.4335462,26.5294911 14.5615462,26.9834911 C14.7735462,27.7324911 15.4985462,28.2704911 16.1195462,28.6814911 M81.0445462,51.8214911 C80.6355462,52.0264911 80.9345462,52.2544911 81.1575462,52.5054911 C82.0005462,53.4544911 83.2625462,53.9644911 84.5175462,54.0084911 C85.0145462,54.0264911 85.8555462,54.0464911 86.2525462,53.6954911 C86.6665462,53.3294911 86.4395462,52.6894911 86.1245462,52.3384911 C85.6045462,51.7594911 84.7165462,51.5954911 83.9775462,51.4994911 C83.0465462,51.3794911 81.9025462,51.3904911 81.0445462,51.8214911 M26.9165462,72.4544911 C26.4285462,72.8264911 26.2425462,73.5134911 26.1215462,74.0884911 C25.9675462,74.8114911 25.9035462,75.7114911 26.1875462,76.4124911 C26.3235462,76.7474911 26.5215462,76.5264911 26.7325462,76.3674911 C27.5315462,75.7654911 28.0125462,74.8054911 28.1265462,73.8224911 C28.1715462,73.4334911 28.2405462,72.7734911 27.9905462,72.4394911 C27.7295462,72.0914911 27.2125462,72.2284911 26.9165462,72.4544911 M39.2005462,78.2204911 C38.4015462,79.9014911 37.3755462,81.4584911 36.4085462,83.0434911 C35.6735462,84.2474911 34.3535462,85.9444911 34.8795462,87.4634911 C35.4465462,89.1024911 37.3535462,87.5614911 38.0945462,86.9034911 C40.3225462,84.9234911 40.6345462,81.5644911 40.3115462,78.7804911 C40.2045462,77.8594911 39.5565462,77.4734911 39.2005462,78.2204911 M72.0515462,72.0994911 C71.4445462,71.7144911 70.5225462,71.5354911 69.8075462,71.4934911 C69.7915462,71.4924911 69.7765462,71.4924911 69.7605462,71.4914911 C69.9325462,71.4994911 70.8775462,73.7424911 71.0085462,73.9784911 C71.5905462,75.0244911 72.2375462,75.9824911 73.1085462,76.8124911 C74.6445462,78.2734911 75.3625462,76.2684911 74.7185462,75.0204911 C74.1495462,73.9194911 73.0995462,72.7694911 72.0515462,72.0994911 M69.3305462,86.7644911 C67.9405462,83.9404911 66.2725462,81.2564911 64.3615462,78.7594911 C64.0875462,78.4014911 63.5105462,78.6604911 63.5815462,79.1064911 C64.1475462,82.6234911 65.5925462,85.9984911 67.7735462,88.8074911 C68.3095462,89.4984911 68.9385462,90.1884911 69.7795462,90.4204911 C69.9215462,90.4604911 70.0815462,90.4824911 70.2085462,90.4074911 C70.4095462,90.2894911 70.4175462,90.0044911 70.3865462,89.7714911 C70.2455462,88.7134911 69.8015462,87.7224911 69.3305462,86.7644911 M94.9455462,67.3284911 C94.5535462,66.0044911 93.2025462,65.2324911 91.9315462,64.6924911 C86.6555462,62.4524911 80.8645462,61.8984911 75.1195462,61.5614911 C74.7505462,61.5404911 74.6335462,62.0544911 74.9795462,62.1864911 C79.6205462,63.9614911 92.9055462,68.2994911 94.2845462,68.2664911 C94.4695462,68.2624911 94.6685462,68.2524911 94.8135462,68.1374911 C95.0415462,67.9574911 95.0275462,67.6074911 94.9455462,67.3284911 M68.4745462,15.4784911 C69.1495462,14.5784911 69.8055462,13.5364911 70.2115462,12.4894911 C70.7925462,10.9914911 70.8225462,9.22249112 68.8595462,9.01049112 C67.6155462,8.87649112 66.5405462,10.0544911 65.8295462,10.9244911 C64.5525462,12.4844911 61.0435462,19.5354911 61.4155462,21.1144911 C61.4305462,21.1784911 64.7225462,20.4764911 68.4745462,15.4784911 M88.9475462,39.6524911 C90.0525462,39.4384911 91.2375462,39.1074911 92.2415462,38.6034911 C93.6765462,37.8814911 94.8865462,36.5894911 93.5735462,35.1164911 C92.7415462,34.1824911 91.1535462,34.3344911 90.0425462,34.5014911 C88.0485462,34.8014911 80.7155462,37.6744911 79.9315462,39.0944911 C79.9005462,39.1524911 82.8125462,40.8414911 88.9475462,39.6524911 M64.0625462,70.0814911 C63.4405462,70.1044911 62.7675462,70.4154911 62.5745462,71.0074911 C62.2195462,72.0934911 62.8835462,73.9014911 60.9345462,73.7384911 C60.2615462,73.6824911 59.6555462,73.3284911 59.0115462,73.1244911 C58.3675462,72.9204911 57.5685462,72.9074911 57.1175462,73.4104911 C56.6075462,73.9804911 56.7555462,74.9764911 56.1625462,75.4604911 C55.1965462,76.2464911 53.6895462,75.3484911 52.6225462,76.0064911 C52.0835462,76.3394911 51.7545462,76.9894911 51.1515462,77.1874911 C50.5675462,77.3794911 49.9435462,77.0754911 49.4255462,76.7444911 C48.1355462,75.9184911 46.5535462,75.6584911 45.0675462,76.1344911 C44.4535462,76.3314911 43.7305462,76.0644911 43.5515462,75.4444911 C43.1445462,74.0314911 40.0745462,74.8834911 38.9835462,73.1664911 C38.3505462,72.1694911 38.4875462,70.4284911 37.4645462,69.8394911 C36.0505462,69.0264911 34.4955462,68.9104911 32.9115462,69.1414911 C31.9135462,69.2864911 30.3545462,70.0024911 29.6915462,68.8434911 C29.4455462,68.4154911 29.4515462,67.8914911 29.3035462,67.4204911 C29.1075462,66.7974911 28.6235462,66.2714911 28.0185462,66.0254911 C27.2045462,65.6934911 26.5295462,65.6904911 26.1785462,64.7454911 C25.9845462,64.2224911 25.8665462,63.6254911 25.4325462,63.2754911 C25.0515462,62.9694911 24.5205462,62.9364911 24.0855462,62.7134911 C23.1795462,62.2514911 22.8925462,61.1294911 22.4125462,60.2334911 C21.9095462,59.2954911 21.1295462,58.5414911 20.4695462,57.7064911 C19.8095462,56.8714911 19.2445462,55.8744911 19.3005462,54.8114911 C19.3575462,53.7164911 20.0675462,52.6464911 19.7655462,51.5924911 C19.5705462,50.9144911 18.9695462,50.3424911 19.0155462,49.6374911 C19.0855462,48.5574911 20.3335462,48.0094911 20.1385462,46.8464911 C20.0495462,46.3154911 19.6155462,45.8224911 19.4445462,45.3114911 C18.7735462,43.3074911 20.1845462,41.6984911 21.6895462,40.5284911 C21.9645462,40.3144911 21.7855462,39.8314911 21.5395462,39.3864911 C21.2525462,38.8684911 21.3005462,38.2254911 21.7025462,37.7874911 C22.8565462,36.5334911 23.5365462,34.9254911 23.7565462,33.2364911 C24.1105462,30.5254911 27.4285462,32.8104911 28.8595462,31.5264911 C29.5315462,30.9244911 29.8745462,30.0324911 30.0405462,29.1454911 C30.1505462,28.5524911 30.2245462,27.8864911 30.6865462,27.4994911 C30.9855462,27.2484911 31.3885462,27.1714911 31.7595462,27.0474911 C32.6445462,26.7514911 33.4195462,26.1354911 33.9055462,25.3384911 C34.2705462,24.7414911 34.5615462,23.9754911 35.2365462,23.7904911 C35.8445462,23.6234911 36.4425462,24.0244911 37.0095462,24.3004911 C38.6565462,25.1044911 40.3315462,24.7434911 41.9275462,24.0364911 C43.5435462,23.3204911 45.0245462,22.3044911 46.2775462,21.0604911 C46.8685462,20.4734911 47.8175462,20.4444911 48.3905462,21.0484911 C49.9295462,22.6674911 52.0585462,23.6474911 54.2625462,23.9264911 C55.3705462,24.0674911 56.5015462,24.0334911 57.5975462,23.8164911 C58.2965462,23.6774911 59.9655462,22.7254911 60.6115462,23.0954911 C61.0235462,23.3314911 60.9965462,23.9204911 61.1635462,24.3644911 C61.7965462,26.0494911 63.1755462,24.7044911 64.1065462,24.4404911 C64.9065462,24.2134911 65.6745462,24.9744911 65.9225462,25.7674911 C66.1705462,26.5614911 66.1085462,27.4274911 66.3675462,28.2164911 C66.6275462,29.0064911 67.4255462,29.7474911 68.2145462,29.4854911 C68.7865462,29.2944911 69.0785462,28.6824911 69.4565462,28.2134911 C69.9905462,27.5514911 70.9495462,27.3564911 71.1525462,28.3354911 C71.4035462,29.5434911 70.4235462,30.4684911 70.5275462,31.6464911 C70.6755462,33.3344911 72.4505462,32.9984911 73.5075462,33.6994911 C74.2975462,34.2234911 74.2855462,35.1984911 74.6125462,35.9864911 C74.9725462,36.8574911 75.6565462,37.5584911 76.1145462,38.3744911 C77.0525462,40.0434911 76.8815462,41.8344911 76.3705462,43.5894911 C76.1255462,44.4294911 76.6715462,45.2624911 77.5335462,45.4104911 C78.2425462,45.5314911 78.8375462,45.8754911 78.7885462,46.5444911 C78.6805462,48.0224911 76.2855462,47.8274911 76.2135462,49.5884911 C76.2085462,49.7064911 76.2155462,49.8234911 76.2335462,49.9384911 C76.4055462,51.0484911 76.0835462,52.1334911 75.3205462,52.9574911 C75.2125462,53.0744911 75.1095462,53.1984911 75.0155462,53.3284911 C74.5525462,53.9624911 74.3835462,54.6784911 74.7015462,55.4034911 C74.9515462,55.9754911 75.5685462,56.2734911 75.1165462,57.0204911 C74.3255462,58.3264911 71.8595462,57.1674911 70.9545462,58.3964911 C69.9115462,59.8144911 72.2345462,60.7154911 72.4075462,61.9654911 C72.5025462,62.6574911 72.3205462,63.3574911 72.0835462,64.0134911 C71.7245462,65.0064911 71.1495462,66.0324911 70.1605462,66.3984911 C69.4985462,66.6434911 68.6485462,66.6094911 68.2515462,67.1914911 C67.6655462,68.0494911 68.4795462,69.1654911 67.6705462,69.9264911 C67.2175462,70.3534911 66.5275462,70.4084911 65.9095462,70.3284911 C65.3405462,70.2544911 64.7785462,70.0864911 64.2065462,70.0794911 C64.1585462,70.0794911 64.1105462,70.0794911 64.0625462,70.0814911" fill="#000000"/></g></svg>