<?xml version="1.0" encoding="utf-8"?>
<!-- Generator: Adobe Illustrator 23.0.3, SVG Export Plug-In . SVG Version: 6.00 Build 0)  -->
<svg version="1.1" id="Layer_1" xmlns="http://www.w3.org/2000/svg" xmlns:xlink="http://www.w3.org/1999/xlink" x="0px" y="0px"
	 viewBox="0 0 141.7 141.7" style="enable-background:new 0 0 141.7 141.7;" xml:space="preserve">
<style type="text/css">
	.st0{fill:url(#SVGID_1_);}
	.st1{opacity:0.73;fill:url(#SVGID_2_);}
	.st2{fill:#FFFFFF;}
	.st3{fill:url(#SVGID_3_);}
	.st4{opacity:0.73;fill:url(#SVGID_4_);}
	.st5{fill:url(#SVGID_5_);}
	.st6{fill:url(#SVGID_6_);}
	.st7{opacity:0.73;fill:url(#SVGID_7_);}
	.st8{fill:url(#SVGID_8_);}
	.st9{opacity:0.73;fill:url(#SVGID_9_);}
	.st10{fill:url(#SVGID_10_);}
	.st11{opacity:0.73;fill:url(#SVGID_11_);}
	.st12{fill:url(#SVGID_12_);}
	.st13{fill:url(#SVGID_13_);}
	.st14{opacity:0.73;fill:url(#SVGID_14_);}
</style>
<g>
	<linearGradient xmlns="http://www.w3.org/2000/svg" id="SVGID_1_" gradientUnits="userSpaceOnUse" x1="3.4284" y1="70.8661" x2="138.3035" y2="70.8661">
		<stop offset="0" style="stop-color: #5f3ad8;"/>
		<stop offset="0.2871" style="stop-color: #624cc4;"/>
		<stop offset="0.4849" style="stop-color: #634fc4;"/>
		<stop offset="0.6557" style="stop-color: #6450c4;"/>
		<stop offset="0.8113" style="stop-color: #6955c6;"/>
		<stop offset="0.9552" style="stop-color: #6b57c9;"/>
		<stop offset="1" style="stop-color: #6b57c9;"/>
	</linearGradient>
	<path class="st0" d="M138.3,90L138.3,90c0,13-10.5,23.5-23.5,23.5H53.2h-3.1h-13c-3.4,0-6.1-2.7-6.1-6.1v0c0-3.4,2.7-6.1,6.1-6.1
		h12.2c3.4,0,6.1-2.7,6.1-6.1v0c0-3.4-2.7-6.1-6.1-6.1H9.5c-3.5,0-6.3-2.9-6.1-6.4C3.6,79.4,6.6,77,9.9,77l34.2,0
		c3.4,0,6.1-2.7,6.1-6.1v0c0-3.4-2.7-6.1-6.1-6.1h-3.9c-3.5,0-6.3-2.9-6.1-6.4c0.2-3.3,3.1-5.8,6.4-5.8l12.7,0
		c3.5,0,6.3-2.9,6.1-6.4c-0.2-3.3-3.1-5.8-6.4-5.8l-21.1,0c-3.8,0-6.8-3.4-6-7.4c0.6-2.9,3.2-4.8,6.1-4.8l18.2,0h14.8l44.9,0
		c12.8,0,23.8,10,24.2,22.8c0.2,7.3-2.9,13.9-8,18.4C133.3,73.4,138.3,81.1,138.3,90z M29.5,58.6L29.5,58.6c0-3.3-2.7-6-6-6h-5.7
		c-3.3,0-6,2.7-6,6v0c0,3.3,2.7,6,6,6h5.7C26.8,64.6,29.5,61.9,29.5,58.6z"/>
	<g>
		<linearGradient id="SVGID_2_" gradientUnits="userSpaceOnUse" x1="73.4522" y1="105.4443" x2="124.0197" y2="54.8768">
			<stop  offset="0" style="stop-color:#000000;stop-opacity:0"/>
			<stop  offset="1" style="stop-color:#000000"/>
		</linearGradient>
		<path class="st1" d="M131.5,62.3L113.5,46L83.7,56l-10-10l-5,26.8l-5,23l18.9,17.8h32.1c13,0,23.5-10.5,23.5-23.5v0
			c0-8.9-5-16.7-12.3-20.6C128.3,67.4,130.1,65,131.5,62.3z"/>
		<g>
			<rect x="83.7" y="85.8" class="st2" width="29.9" height="10"/>
			<rect x="83.7" y="46" class="st2" width="29.9" height="10"/>
			<rect x="63.8" y="46" class="st2" width="10" height="49.8"/>
			<rect x="83.7" y="65.9" class="st2" width="29.9" height="10"/>
		</g>
	</g>
</g>
</svg>
